<?xml version="1.0" encoding="UTF-8" standalone="no"?>
<!-- Created with Inkscape (http://www.inkscape.org/) -->

<svg
   xmlns:dc="http://purl.org/dc/elements/1.1/"
   xmlns:cc="http://creativecommons.org/ns#"
   xmlns:rdf="http://www.w3.org/1999/02/22-rdf-syntax-ns#"
   xmlns:svg="http://www.w3.org/2000/svg"
   xmlns="http://www.w3.org/2000/svg"
   xmlns:sodipodi="http://sodipodi.sourceforge.net/DTD/sodipodi-0.dtd"
   xmlns:inkscape="http://www.inkscape.org/namespaces/inkscape"
   width="150.01152"
   height="57.480858"
   viewBox="0 0 39.690546 15.208477"
   version="1.1"
   id="svg4794"
   inkscape:version="0.92.4 (unknown)"
   sodipodi:docname="walex.svg">
  <defs
     id="defs4788" />
  <sodipodi:namedview
     id="base"
     pagecolor="#ffffff"
     bordercolor="#666666"
     borderopacity="1.0"
     inkscape:pageopacity="0.0"
     inkscape:pageshadow="2"
     inkscape:zoom="9.133995"
     inkscape:cx="74.175743"
     inkscape:cy="31.941136"
     inkscape:document-units="mm"
     inkscape:current-layer="layer1"
     showgrid="false"
     inkscape:window-width="2560"
     inkscape:window-height="1015"
     inkscape:window-x="0"
     inkscape:window-y="36"
     inkscape:window-maximized="1"
     showguides="true"
     inkscape:guide-bbox="true"
     units="px"
     fit-margin-top="0"
     fit-margin-left="0"
     fit-margin-right="0"
     fit-margin-bottom="0" />
  <metadata
     id="metadata4791">
    <rdf:RDF>
      <cc:Work
         rdf:about="">
        <dc:format>image/svg+xml</dc:format>
        <dc:type
           rdf:resource="http://purl.org/dc/dcmitype/StillImage" />
        <dc:title></dc:title>
      </cc:Work>
    </rdf:RDF>
  </metadata>
  <g
     inkscape:label="Capa 1"
     inkscape:groupmode="layer"
     id="layer1"
     transform="translate(-22.40951,-76.356952)">
    <g
       id="g966"
       transform="matrix(0.25390085,0,0,0.20964218,16.18025,63.339776)">
      <rect
         ry="0"
         y="63.391853"
         x="25.833721"
         height="69.94593"
         width="153.72403"
         id="rect900"
         style="fill:#ffffff;fill-opacity:1;stroke:#002858;stroke-width:2.59899998;stroke-miterlimit:4;stroke-dasharray:none;stroke-opacity:1" />
      <g
         id="g955">
        <g
           id="g946">
          <path
             inkscape:connector-curvature="0"
             id="path878"
             d="m 32.190781,93.844261 v -24.88276 h 70.504959 70.50495 V 93.844261 118.727 H 102.69574 32.190781 Z"
             style="fill:#002858;fill-opacity:1;stroke:#000000;stroke-width:0.18923667;stroke-opacity:1" />
          <path
             inkscape:connector-curvature="0"
             id="path5023"
             d="m 121.44594,113.90121 c -2.47086,-0.35239 -3.70706,-0.75133 -6.09331,-1.96639 -2.3114,-1.17696 -3.26895,-2.09476 -4.1253,-3.95404 -0.59496,-1.29177 -0.55251,-1.45676 0.39846,-1.5489 0.74188,-0.0719 0.88494,0.0284 1.34731,0.9441 0.71707,1.42017 3.19878,3.3389 5.11585,3.95533 2.76206,0.88811 3.91289,1.01945 6.66429,0.76057 4.67888,-0.44024 8.31996,-1.59955 13.24535,-4.21723 5.63443,-2.99452 7.07887,-4.28174 11.88829,-10.594259 l 2.77791,-3.6461 -3.20501,-4.830155 c -3.4914,-5.261749 -4.65323,-6.490509 -6.6116,-6.992425 -0.69122,-0.177156 -1.25677,-0.415747 -1.25677,-0.530212 0,-0.114466 2.4829,-0.208118 5.51756,-0.208118 5.10192,0 6.71317,0.20998 4.70034,0.612547 -1.03215,0.206429 -1.7491,0.845812 -1.7491,1.559876 0,0.404916 3.55559,6.312733 4.5617,7.579532 0.21515,0.27089 5.3997,-6.576603 5.61961,-7.422104 0.19745,-0.759158 -0.88241,-1.816587 -1.85513,-1.816587 -0.345,0 -0.62727,-0.115484 -0.62727,-0.256632 0,-0.160717 1.58256,-0.256632 4.2344,-0.256632 2.32893,0 4.2344,0.09153 4.2344,0.203404 0,0.111875 -0.4949,0.335772 -1.09977,0.49755 -0.60488,0.161786 -1.54626,0.648963 -2.09196,1.082629 -1.02131,0.811644 -7.33011,8.758804 -7.33011,9.233716 0,0.449342 6.43673,9.9942 7.6491,11.34265 0.83004,0.9232 1.44737,1.35124 2.26364,1.56957 0.6173,0.1651 1.12237,0.39172 1.12237,0.50359 0,0.11187 -2.30968,0.2034 -5.13261,0.2034 -3.25065,0 -5.13261,-0.0941 -5.13261,-0.25663 0,-0.14115 0.26302,-0.25663 0.58447,-0.25663 0.32146,0 0.84114,-0.17977 1.15484,-0.39949 1.07321,-0.75171 0.76715,-1.62822 -2.02775,-5.807199 -2.51419,-3.75926 -2.61159,-3.8678 -3.01541,-3.3604 -7.7314,9.714609 -8.57861,10.513559 -14.44213,13.619509 -3.50954,1.85904 -9.34988,4.13248 -10.99661,4.2806 -0.57397,0.0516 -2.32063,0.26661 -4.10609,0.50537 -0.35286,0.0472 -1.33448,-0.013 -2.18135,-0.13381 z M 45.465324,94.610631 c -2.70115,-7.686416 -4.275073,-11.80947 -4.655308,-12.195044 -0.315949,-0.320386 -0.923857,-0.652403 -1.350905,-0.737807 -1.853096,-0.370624 -0.46596,-0.604399 3.586262,-0.604399 2.737391,0 4.362716,0.09561 4.362716,0.256632 0,0.141148 -0.215393,0.256632 -0.478652,0.256632 -0.765207,0 -1.831021,0.989797 -1.831021,1.700427 0,0.350161 0.645678,2.507097 1.434839,4.793194 0.789162,2.286096 2.028322,5.917655 2.753688,8.070145 0.725367,2.15249 1.398175,3.913619 1.495129,3.913619 0.09695,0 0.717405,-1.623659 1.378781,-3.608139 2.79573,-8.388661 4.463638,-11.740961 7.62706,-15.329486 2.186774,-2.480632 3.853555,-3.704669 7.252395,-5.325972 6.049181,-2.885556 12.728661,-2.884028 18.656311,0.0044 6.71281,3.27085 9.55943,12.547624 5.63155,18.352488 -1.80817,2.67224 -4.60156,3.85764 -9.0711,3.8494 -4.0231,-0.007 -7.12984,-1.11625 -10.015114,-3.5745 -1.339199,-1.141 -2.767793,-3.381564 -2.924305,-4.586391 l -0.122772,-0.945082 0.467755,0.831468 c 2.874267,5.109245 12.043306,7.738705 17.477456,5.012115 3.00156,-1.506032 4.58828,-4.63362 4.14876,-8.177627 -0.66724,-5.380278 -4.29878,-9.247119 -10.22733,-10.889998 -3.74598,-1.038065 -9.22621,-0.412715 -13.545306,1.545655 -2.104766,0.954349 -3.812502,2.18617 -6.214726,4.482814 -3.578769,3.421486 -4.723188,5.668563 -8.531997,16.752606 -1.466731,4.268349 -2.792002,7.761719 -2.945047,7.763059 -0.153045,0.001 -2.114649,-5.22319 -4.359119,-11.610079 z m 13.811541,5.902499 C 58.149687,97.372611 56.959938,94.041611 56.63298,93.110886 l -0.594469,-1.692222 0.970507,-2.028919 0.970509,-2.028918 2.220717,6.350564 c 1.221395,3.49281 2.279046,6.351029 2.350336,6.351599 0.201142,0.001 5.388876,-15.145325 5.560949,-16.23664 0.193196,-1.225283 -0.381509,-1.928275 -1.756093,-2.148082 -2.048126,-0.327508 -0.851466,-0.604887 2.609599,-0.604887 3.381913,0 4.556034,0.260924 2.855161,0.634501 -0.940915,0.206655 -1.667019,0.986372 -2.27695,2.445066 -0.265581,0.635157 -2.08886,5.860794 -4.051728,11.612523 -1.962868,5.751719 -3.703038,10.457689 -3.867043,10.457689 -0.164007,0 -1.220431,-2.56952 -2.34761,-5.71003 z m 9.9448,4.94013 c 0,-0.14115 0.24885,-0.25663 0.552998,-0.25663 1.02998,0 2.393323,-1.83103 3.712216,-4.98566 0.6829,-1.633439 1.30859,-2.969879 1.39041,-2.969879 0.0818,0 0.35261,0.14905 0.60175,0.33122 0.48897,0.35755 0.49456,0.33217 -0.64841,2.939189 -0.2626,0.59898 -0.61974,1.62103 -0.79364,2.27122 -0.30738,1.14928 -0.29626,1.19931 0.39981,1.79804 0.40515,0.3485 1.04401,0.61587 1.47156,0.61587 0.41557,0 0.75559,0.11548 0.75559,0.25663 0,0.15929 -1.41147,0.25663 -3.721144,0.25663 -2.309673,0 -3.72114,-0.0973 -3.72114,-0.25663 z m 16.296024,0 c 0.0872,-0.14115 0.41481,-0.25663 0.72794,-0.25663 0.31313,0 0.82599,-0.17977 1.13969,-0.39949 0.80039,-0.56062 0.72176,-1.60543 -0.3176,-4.21986 l -0.86719,-2.181349 0.81342,-0.14496 c 0.44738,-0.0797 1.06566,-0.28182 1.37396,-0.4491 0.3083,-0.16728 0.60884,-0.30415 0.66786,-0.30415 0.059,0 0.71413,1.38594 1.4558,3.079859 1.41388,3.22919 2.23767,4.25612 3.63907,4.53639 1.85649,0.3713 0.33794,0.59592 -4.02875,0.59592 -3.10985,0 -4.70776,-0.0891 -4.6042,-0.25663 z m 10.90679,0.003 c 0,-0.14288 0.46718,-0.25979 1.03818,-0.25979 0.76011,0 1.20692,-0.16873 1.6681,-0.62991 l 0.62991,-0.62991 V 93.545681 83.154799 l -0.57781,-0.671755 c -0.3911,-0.454674 -0.93014,-0.719009 -1.6681,-0.817987 -0.59966,-0.08043 -1.09028,-0.24652 -1.09028,-0.369082 0,-0.122562 2.42516,-0.222842 5.389231,-0.222842 5.14675,0 6.92849,0.263521 4.04193,0.597795 -1.06563,0.123404 -1.49485,0.319505 -2.05304,0.938002 l -0.70574,0.781979 v 9.847784 c 0,9.313697 0.0266,9.880647 0.49059,10.453637 0.4743,0.58573 0.61277,0.60585 4.17025,0.60585 2.02381,0 4.09392,-0.0883 4.60025,-0.19627 1.3059,-0.27841 2.82629,-1.68608 3.80559,-3.52345 0.46241,-0.867559 0.88395,-1.534159 0.93676,-1.481349 0.0528,0.0528 -0.34266,1.533359 -0.87883,3.290119 l -0.97484,3.1941 -9.41108,0.0673 c -6.223651,0.0445 -9.411071,-0.0207 -9.411071,-0.19247 z m 22.583471,-0.003 c 0,-0.14115 0.44914,-0.25663 0.99809,-0.25663 1.36074,0 2.07601,-0.64262 2.35048,-2.11173 0.27967,-1.49701 0.2852,-17.45072 0.007,-19.212771 -0.25603,-1.619674 -0.67808,-2.050481 -2.17394,-2.21909 -0.64972,-0.07322 -1.1813,-0.233607 -1.1813,-0.356402 0,-0.122787 4.14172,-0.223256 9.20381,-0.223256 h 9.20381 l 0.1632,1.190655 c 0.23881,1.742337 0.19913,4.198585 -0.0679,4.198585 -0.12707,0 -0.36455,-0.548553 -0.52774,-1.218998 -0.33071,-1.358677 -0.61477,-1.809423 -1.54384,-2.449766 -0.53948,-0.371817 -1.31789,-0.437325 -5.19677,-0.437325 h -4.56224 V 92.95764 c 0,8.74312 0.0637,10.68842 0.36374,11.09926 0.31804,0.43557 0.74817,0.5088 3.42365,0.58287 3.48994,0.0966 5.66624,-0.22228 6.74139,-0.98786 0.40897,-0.29121 1.22596,-1.27536 1.81552,-2.187 0.58957,-0.91163 1.18371,-1.657518 1.3203,-1.657518 0.13659,0 0.19412,0.14436 0.12783,0.320788 -0.0663,0.17644 -0.50739,1.5045 -0.98023,2.95125 l -0.85972,2.63046 h -9.31243 c -6.0372,0 -9.31243,-0.0903 -9.31243,-0.25663 z m -8.13297,-3.06882 c 0.36029,-3.042069 3.91983,-7.268879 7.64764,-9.081239 1.04324,-0.507209 2.21437,-0.996023 2.60252,-1.086271 0.65257,-0.151718 0.70574,-0.104579 0.70574,0.625714 0,0.708647 -0.15164,0.862287 -1.47563,1.495087 -2.70491,1.29284 -7.50643,6.640879 -7.50643,8.360829 0,0.29761 -1.31995,0.95829 -1.91454,0.95829 -0.1155,0 -0.14218,-0.57259 -0.0593,-1.27241 z m 31.26291,-4.774469 c -0.668,-0.84921 -2.43943,-2.20103 -3.75436,-2.86502 -2.29954,-1.16117 -3.92468,-1.46546 -7.87081,-1.47373 l -3.76474,-0.008 -0.1131,-0.898207 c -0.0622,-0.494016 -0.0555,-0.999576 0.0148,-1.123469 0.21531,-0.379062 6.4549,0.03717 8.39761,0.560214 3.10535,0.836043 5.34115,2.410782 7.41655,5.223662 0.78635,1.06578 0.48192,1.61155 -0.326,0.58445 z m -57.332191,-3.01443 c -0.21114,-0.16813 -1.11893,-2.124249 -2.01731,-4.346918 -0.89838,-2.222669 -1.69702,-4.041543 -1.77476,-4.041928 -0.0777,-3.86e-4 -0.92873,1.85046 -1.89108,4.112994 -1.59824,3.757552 -1.79707,4.099172 -2.29664,3.945892 -0.3008,-0.0923 -0.58114,-0.19732 -0.62297,-0.23338 -0.0418,-0.0361 0.95824,-2.533488 2.22238,-5.549826 3.22516,-7.69543 3.32738,-7.922251 3.5705,-7.922251 0.19435,0 5.31743,12.171219 5.50047,13.067827 0.1118,0.54759 -2.1821,1.37252 -2.69059,0.96759 z"
             style="fill:#ffffff;stroke-width:0.2566303" />
        </g>
        <text
           xml:space="preserve"
           style="font-style:normal;font-variant:normal;font-weight:normal;font-stretch:normal;font-size:11.36159325px;line-height:1.25;font-family:C059;-inkscape-font-specification:C059;letter-spacing:0px;word-spacing:0px;fill:#000000;fill-opacity:1;stroke:none;stroke-width:0.28403983"
           x="49.976608"
           y="146.86522"
           id="text882"
           transform="scale(1.1430462,0.87485527)"><tspan
             sodipodi:role="line"
             id="tspan880"
             x="49.976608"
             y="146.86522"
             style="stroke-width:0.28403983"><tspan
   style="fill:#666666;stroke-width:0.28403983"
   id="tspan884">www</tspan>.walex.<tspan
   style="fill:#666666;stroke-width:0.28403983"
   id="tspan886">net</tspan></tspan></text>
      </g>
    </g>
  </g>
</svg>
